# xmcd CD database file
#
# Track frame offsets:
#	150
#	21871
#	40092
#	58426
#	72358
#	94459
#	115995
#	130711
#	149192
#	168165
#
# Disc length: 2506 seconds
#
# Revision: 0
# Processed by: cddbd v1.5.2PL0 Copyright (c) Steve Scherf et al.
# Submitted via: CDex 1.79
#
DISCID=9809c80a
DTITLE=Frank Tarsia - Blues all around me
DYEAR=2004
DGENRE=Blues
TTITLE0=Pawn Shop Bound
TTITLE1=Rollin'and Tumblin'
TTITLE2=I'm Ready
TTITLE3=Honey Babe
TTITLE4=MoJo
TTITLE5=Shake the Boogie
TTITLE6=Rockin' Sugar Daddy
TTITLE7=Big Boss Man
TTITLE8=Shaky Ground
TTITLE9=Cross Roads
EXTD=YEAR: 2004
EXTT0=
EXTT1=
EXTT2=
EXTT3=
EXTT4=
EXTT5=
EXTT6=
EXTT7=
EXTT8=
EXTT9=
PLAYORDER=
